# xmcd
#
# Track frame offsets:
#	150
#	17617
#	35432
#	54392
#	73095
#	90717
#	106007
#	118920
#	133670
#	149137
#	168257
#
# Disc length: 2499 seconds
#
# Revision: 1
# Processed by: cddbd v1.4PL0 Copyright (c) Steve Scherf et al.
# Submitted via: audiograbber 1.80
#
DISCID=9909c10b
DTITLE=Patti Page - Brand New Tennessee Waltz
DYEAR=1900
DGENRE=
TTITLE0=Brand New Tennessee Waltz
TTITLE1=Till I Get It Right
TTITLE2=I Believe In You
TTITLE3=Hope Chest
TTITLE4=New Way Out
TTITLE5=I Was Just Thinking
TTITLE6=One Less Rose In Texas
TTITLE7=Could I Have This Dance
TTITLE8=Paper Dolls
TTITLE9=Where've You Been
TTITLE10=Tennessee Waltz
EXTD=
EXTT0=
EXTT1=
EXTT2=
EXTT3=
EXTT4=
EXTT5=
EXTT6=
EXTT7=
EXTT8=
EXTT9=
EXTT10=
PLAYORDER=
